<?xml version="1.0" encoding="UTF-8" standalone="no"?>
<svg width="100%" height="100%" viewBox="0 0 80 100" version="1.1" xmlns="http://www.w3.org/2000/svg" style="fill-rule:evenodd;clip-rule:evenodd;stroke-linecap:square;stroke-linejoin:round;stroke-miterlimit:1.5;">
    <g transform="matrix(0.747898,0,0,0.750499,2.61351,5.40932)">
        <path d="M49.946,50.088C49.946,50.088 29.894,36.703 29.963,29.968C29.977,28.5 29.936,26.685 29.933,24.771L70.045,24.771C70.042,26.756 70.048,28.595 70.014,29.968C69.852,36.378 49.946,50.088 49.946,50.088Z" style="fill:rgb(255,146,0);"/>
    </g>
    <g transform="matrix(-0.747895,-9.15907e-17,9.17603e-17,-0.749279,77.3863,102.275)">
        <path d="M49.989,37.736C49.989,37.736 29.864,31.506 29.933,24.771C29.947,23.303 29.936,26.685 29.933,24.771L70.045,24.771C70.042,26.756 70.018,23.398 69.984,24.771C69.822,31.181 49.989,37.736 49.989,37.736Z" style="fill:rgb(255,146,0);"/>
    </g>
    <g transform="matrix(0.839542,0,0,1,-1.66361,0.113586)">
        <path d="M17.507,10.886L81.746,10.886" style="fill:none;stroke:rgb(176,176,176);stroke-width:5.42px;"/>
    </g>
    <g transform="matrix(0.839542,0,0,1,-1.66361,78.1136)">
        <path d="M17.507,10.886L81.746,10.886" style="fill:none;stroke:rgb(176,176,176);stroke-width:5.42px;"/>
    </g>
    <g transform="matrix(0.997921,0,0,1.00246,-9.86819,-0.62317)">
        <path d="M29.963,11.595C29.963,11.595 29.89,23.827 29.963,29.968C30.102,41.775 70.028,58.228 70.014,70.035C70.006,76.113 70.014,88.405 70.014,88.405" style="fill:none;stroke:rgb(176,176,176);stroke-width:5px;"/>
    </g>
    <g transform="matrix(0.997903,0,0,1.00246,-9.93718,-0.62317)">
        <path d="M70.014,11.595C70.014,11.595 70.088,24.49 70.014,29.968C69.855,41.775 29.935,58.228 29.963,70.035C29.974,75.104 29.963,88.405 29.963,88.405" style="fill:none;stroke:rgb(176,176,176);stroke-width:5px;"/>
    </g>
</svg>
