<svg xmlns="http://www.w3.org/2000/svg" viewBox="0 0 96 96"><defs><style>.cls-1{isolation:isolate;}.cls-2,.cls-9{fill:#fff;}.cls-3{fill:#333;stroke:#fff;}.cls-10,.cls-3,.cls-5,.cls-6,.cls-9{stroke-miterlimit:10;}.cls-3,.cls-9{stroke-width:2px;}.cls-4{opacity:0;mix-blend-mode:multiply;}.cls-10,.cls-5{fill:none;}.cls-5,.cls-6{stroke:#4d4d4d;stroke-width:0.5px;}.cls-6,.cls-7{fill:#4d4d4d;}.cls-8{fill:#1f80aa;}.cls-10,.cls-9{stroke:#1f80aa;}.cls-10{stroke-width:3px;}</style></defs><g class="cls-1"><g id="Layer_2" data-name="Layer 2"><rect class="cls-2" x="20" y="15" width="56" height="66"/><line class="cls-3" x1="13" y1="16" x2="18" y2="16"/><line class="cls-3" x1="78" y1="16" x2="83" y2="16"/><line class="cls-3" x1="13" y1="80" x2="18" y2="80"/><line class="cls-3" x1="78" y1="80" x2="83" y2="80"/><line class="cls-3" x1="75" y1="83" x2="75" y2="88"/><line class="cls-3" x1="21" y1="83" x2="21" y2="88"/><line class="cls-3" x1="21" y1="8" x2="21" y2="13"/><line class="cls-3" x1="75" y1="8" x2="75" y2="13"/><g class="cls-4"><circle cx="47.33" cy="48.09" r="15.46" transform="translate(-17.4 67.13) rotate(-61.85)"/><path d="M37.34,38.1a14.13,14.13,0,1,1,0,20,14.14,14.14,0,0,1,0-20m-1.89-1.89a16.79,16.79,0,1,0,23.75,0,16.81,16.81,0,0,0-23.75,0Z"/><path d="M40.06,55.52c-4.89-6.5-1.87-12-1.84-12.07l-1.45-.82c-.15.27-3.58,6.53,2,13.89Z"/><rect x="61.17" y="56.81" width="4.5" height="14.66" transform="translate(-26.78 63.63) rotate(-45)"/><rect x="68.6" y="60.92" width="6.83" height="23.65" transform="translate(-30.34 72.23) rotate(-45)"/></g><circle class="cls-5" cx="48.54" cy="46.88" r="15.46" transform="translate(-15.7 67.55) rotate(-61.85)"/><path class="cls-6" d="M38.55,36.89a14.13,14.13,0,1,1,0,20,14.14,14.14,0,0,1,0-20M36.66,35a16.79,16.79,0,1,0,23.75,0,16.78,16.78,0,0,0-23.75,0Z"/><rect class="cls-7" x="62.38" y="55.61" width="4.5" height="14.66" transform="translate(-25.57 64.13) rotate(-45)"/><rect class="cls-8" x="70.69" y="59.34" width="6.83" height="26.14" transform="translate(-29.5 73.61) rotate(-45)"/><line class="cls-9" x1="42.75" y1="44.27" x2="53.79" y2="44.27"/><line class="cls-9" x1="42.96" y1="53.4" x2="54" y2="53.4"/><line class="cls-9" x1="48.27" y1="38.75" x2="48.27" y2="49.79"/><line class="cls-10" x1="73.5" y1="72.5" x2="73.5" y2="71.5"/></g></g></svg>