<?xml version="1.0" encoding="UTF-8" standalone="no"?><!DOCTYPE svg PUBLIC "-//W3C//DTD SVG 1.1//EN" "http://www.w3.org/Graphics/SVG/1.1/DTD/svg11.dtd"><svg width="100%" height="100%" viewBox="0 0 32 33" version="1.1" xmlns="http://www.w3.org/2000/svg" xmlns:xlink="http://www.w3.org/1999/xlink" xml:space="preserve" xmlns:serif="http://www.serif.com/" style="fill-rule:evenodd;clip-rule:evenodd;stroke-linejoin:round;stroke-miterlimit:2;"><rect id="ic_cm_bold_en" x="0" y="0.276" width="32" height="32" style="fill:none;"/><path d="M8.108,6.119l7.086,0c2.936,0 5.03,0.436 6.28,1.306c1.251,0.871 1.876,2.121 1.876,3.752c-0,0.889 -0.16,1.644 -0.479,2.264c-0.32,0.621 -0.723,1.112 -1.209,1.473c-0.486,0.361 -0.984,0.607 -1.494,0.737l0,0.139c0.556,0.138 1.109,0.368 1.661,0.687c0.551,0.32 1.009,0.797 1.375,1.431c0.366,0.635 0.549,1.494 0.549,2.578c-0,1.232 -0.313,2.292 -0.938,3.181c-0.625,0.89 -1.517,1.573 -2.675,2.05c-1.157,0.477 -2.533,0.715 -4.126,0.715l-7.906,0l0,-20.313Zm5.488,7.795l1.654,-0c0.907,-0 1.547,-0.188 1.917,-0.563c0.371,-0.375 0.556,-0.831 0.556,-1.368c-0,-0.556 -0.211,-0.98 -0.632,-1.272c-0.422,-0.292 -1.072,-0.437 -1.952,-0.437l-1.543,-0l0,3.64Zm0,4.015l0,4.266l1.932,-0c0.954,-0 1.621,-0.206 2,-0.619c0.38,-0.412 0.57,-0.928 0.57,-1.549c-0,-0.361 -0.081,-0.701 -0.243,-1.021c-0.162,-0.32 -0.438,-0.579 -0.827,-0.778c-0.389,-0.199 -0.926,-0.299 -1.612,-0.299l-1.82,0Z" style="fill-rule:nonzero;"/></svg>