<svg id="Layer_2" data-name="Layer 2" xmlns="http://www.w3.org/2000/svg" viewBox="0 0 96 96"><defs><style>.cls-1{fill:#fff;}.cls-2{fill:#333;stroke:#fff;stroke-miterlimit:10;stroke-width:2px;}.cls-3{fill:#de3f12;fill-rule:evenodd;}</style></defs><rect class="cls-1" x="20" y="15" width="56" height="66"/><line class="cls-2" x1="13" y1="16" x2="18" y2="16"/><line class="cls-2" x1="78" y1="16" x2="83" y2="16"/><line class="cls-2" x1="13" y1="80" x2="18" y2="80"/><line class="cls-2" x1="78" y1="80" x2="83" y2="80"/><line class="cls-2" x1="75" y1="83" x2="75" y2="88"/><line class="cls-2" x1="21" y1="83" x2="21" y2="88"/><line class="cls-2" x1="21" y1="8" x2="21" y2="13"/><line class="cls-2" x1="75" y1="8" x2="75" y2="13"/><path class="cls-3" d="M26.73,51h4a17,17,0,0,1-.25-2.78A17.46,17.46,0,0,1,53.76,31.76,17.73,17.73,0,0,1,56.48,33l-3.85,3.85c-.2-.08-.39-.17-.59-.24a12.3,12.3,0,0,0-8.18,0,12,12,0,0,0-3.63,2,12.23,12.23,0,0,0-4.55,9.54A11.82,11.82,0,0,0,36,51h4.83l-7.06,9Z"/><path class="cls-3" d="M65.29,46a17.73,17.73,0,0,1,.11,1.94,17.39,17.39,0,0,1-2.15,8.4,17.58,17.58,0,0,1-6.9,6.89,17.41,17.41,0,0,1-16.09.35l4-3.95a12.31,12.31,0,0,0,9.64-.93A12.22,12.22,0,0,0,60.07,46H55.15l7.06-9,7.06,9Z"/></svg>